<?xml version="1.0" encoding="utf-8"?>
<!-- Generator: Adobe Illustrator 23.0.6, SVG Export Plug-In . SVG Version: 6.00 Build 0)  -->
<svg version="1.1" id="Capa_1" xmlns="http://www.w3.org/2000/svg" xmlns:xlink="http://www.w3.org/1999/xlink" x="0px" y="0px"
	 viewBox="0 0 60 60" style="enable-background:new 0 0 60 60;" xml:space="preserve">
<style type="text/css">
	.st0{fill:none;stroke:#DC9628;stroke-width:2;stroke-linecap:round;stroke-linejoin:round;stroke-miterlimit:10;}
	.st1{fill:#EEAF4B;}
	.st2{fill:#FBD490;}
	.st3{fill:#DC9628;}
	.st4{opacity:0;fill:#F2ECBF;}
</style>
<path class="st0" d="M34,12V8c0-2.2-1.8-4-4-4s-4,1.8-4,4v4.1"/>
<path class="st1" d="M16.5,50.6c10.7,1.8,16.7,1.8,27.4,0l9.5-1.6l0,0C48.7,44.3,46,38.6,46,32v-9c0-6-4-10.5-7.9-12.3
	c-5-2.3-10.8-2.3-15.8,0C18.3,12.5,14,17,14,23v9c0,6.6-2.3,12.3-7,17l0,0L16.5,50.6z"/>
<path class="st2" d="M19,26C19,26,19,26,19,26c-0.6,0-1-0.5-1-1c0-4.7,3.8-7.6,5.9-8.7c3.8-1.8,8.6-1.8,12.5,0
	c0.5,0.2,0.7,0.8,0.5,1.3c-0.2,0.5-0.8,0.7-1.3,0.5c-3.4-1.5-7.5-1.5-10.8,0C23,19,20,21.3,20,25C20,25.5,19.5,26,19,26z"/>
<path class="st3" d="M21.9,51.5c1.4,3.3,4.6,5.5,8.3,5.5c3.7,0,6.8-2.3,8.3-5.5C32.5,52.2,27.8,52.2,21.9,51.5z"/>
<path class="st4" d="M4.1,40c-0.3,0-0.5-0.1-0.7-0.3C1.2,37.5,0,34.6,0,31.5c0-3.1,1.2-6,3.4-8.2c0.4-0.4,1-0.4,1.4,0s0.4,1,0,1.4
	C3,26.5,2,28.9,2,31.5s1,5,2.8,6.8c0.4,0.4,0.4,1,0,1.4C4.6,39.9,4.4,40,4.1,40z"/>
<path class="st4" d="M8.3,37.7c-0.3,0-0.5-0.1-0.7-0.3c-3.3-3.3-3.3-8.8,0-12.1c0.4-0.4,1-0.4,1.4,0s0.4,1,0,1.4
	c-2.6,2.6-2.6,6.7,0,9.3c0.4,0.4,0.4,1,0,1.4C8.8,37.6,8.6,37.7,8.3,37.7z"/>
<path class="st4" d="M55.9,40c-0.3,0-0.5-0.1-0.7-0.3c-0.4-0.4-0.4-1,0-1.4C57,36.5,58,34,58,31.5s-1-5-2.8-6.8
	c-0.4-0.4-0.4-1,0-1.4s1-0.4,1.4,0c2.2,2.2,3.4,5.1,3.4,8.2s-1.2,6-3.4,8.2C56.4,39.9,56.2,40,55.9,40z"/>
<path class="st4" d="M51.7,37.7c-0.3,0-0.5-0.1-0.7-0.3c-0.4-0.4-0.4-1,0-1.4c2.6-2.6,2.6-6.7,0-9.3c-0.4-0.4-0.4-1,0-1.4
	s1-0.4,1.4,0c3.3,3.3,3.3,8.8,0,12.1C52.2,37.6,52,37.7,51.7,37.7z"/>
</svg>
