<?xml version="1.0" encoding="utf-8"?>
<!-- Generator: Adobe Illustrator 23.0.6, SVG Export Plug-In . SVG Version: 6.00 Build 0)  -->
<svg version="1.1" id="Capa_1" xmlns="http://www.w3.org/2000/svg" xmlns:xlink="http://www.w3.org/1999/xlink" x="0px" y="0px"
	 viewBox="0 0 54.8 54.8" style="enable-background:new 0 0 54.8 54.8;" xml:space="preserve">
<style type="text/css">
	.st0{fill:#6A82FF;}
</style>
<g>
	<path class="st0" d="M27.4,0.4c-14.9,0-27,12.1-27,27s12.1,27,27,27s27-12.1,27-27S42.3,0.4,27.4,0.4z M27.4,50.4
		c-12.7,0-23-10.3-23-23s10.3-23,23-23s23,10.3,23,23S40.1,50.4,27.4,50.4z"/>
	<path class="st0" d="M39.9,25.4H29.4v-10c0-1.1-0.9-2-2-2s-2,0.9-2,2v10H14.9c-1.1,0-2,0.9-2,2s0.9,2,2,2h10.5v11c0,1.1,0.9,2,2,2
		s2-0.9,2-2v-11h10.5c1.1,0,2-0.9,2-2S41,25.4,39.9,25.4z"/>
</g>
</svg>
