<?xml version="1.0" encoding="utf-8"?>
<!-- Generator: Adobe Illustrator 23.0.6, SVG Export Plug-In . SVG Version: 6.00 Build 0)  -->
<svg version="1.1" id="Capa_1" xmlns="http://www.w3.org/2000/svg" xmlns:xlink="http://www.w3.org/1999/xlink" x="0px" y="0px"
	 viewBox="0 0 19.8 19" style="enable-background:new 0 0 19.8 19;" xml:space="preserve">
<style type="text/css">
	.st0{fill:#ED8A19;}
</style>
<path class="st0" d="M10.9,0.6l2.2,4.5c0.2,0.3,0.5,0.5,0.8,0.6l5,0.7c0.9,0.1,1.2,1.2,0.6,1.8l-3.6,3.5c-0.3,0.2-0.4,0.6-0.3,0.9
	l0.9,5c0.1,0.9-0.8,1.5-1.6,1.1l-4.5-2.4c-0.3-0.2-0.7-0.2-1,0l-4.5,2.4c-0.8,0.4-1.7-0.3-1.6-1.1l0.9-5c0.1-0.3-0.1-0.7-0.3-0.9
	L0.3,8.3C-0.3,7.6,0,6.6,0.9,6.4l5-0.7c0.3-0.1,0.6-0.3,0.8-0.6L9,0.6C9.4-0.2,10.5-0.2,10.9,0.6z"/>
</svg>
